<?xml version="1.0" encoding="iso-8859-1"?>
<!-- Generator: Adobe Illustrator 19.0.0, SVG Export Plug-In . SVG Version: 6.00 Build 0)  -->
<svg version="1.1" id="Capa_1" xmlns="http://www.w3.org/2000/svg" xmlns:xlink="http://www.w3.org/1999/xlink" x="0px" y="0px"
	 viewBox="0 0 402.774 402.774" style="enable-background:new 0 0 402.774 402.774;" xml:space="preserve">
<polyline style="fill:#FFE600;" points="256,361.814 146.774,361.814 146.774,157.014 256,157.014 256,309.961 "/>
<path style="fill:#602F75;" d="M256,368.641H146.774c-3.77,0-6.827-3.053-6.827-6.827v-204.8c0-3.773,3.057-6.827,6.827-6.827H256
	c3.77,0,6.827,3.053,6.827,6.827v152.946c0,3.773-3.057,6.827-6.827,6.827s-6.827-3.053-6.827-6.827v-146.12H153.6v191.147H256
	c3.77,0,6.827,3.053,6.827,6.827S259.77,368.641,256,368.641z"/>
<g>
	<rect x="126.294" y="361.814" style="fill:#EA3457;" width="150.187" height="34.133"/>
	<path style="fill:#EA3457;" d="M276.48,402.774H126.294c-3.77,0-6.827-3.053-6.827-6.827v-34.133c0-3.773,3.057-6.827,6.827-6.827
		H276.48c3.77,0,6.827,3.053,6.827,6.827v34.133C283.307,399.721,280.25,402.774,276.48,402.774z M133.12,389.121h136.533v-20.48
		H133.12V389.121z"/>
</g>
<path style="fill:#00E7FF;" d="M201.387,6.828L201.387,6.828L201.387,6.828c-26.226,26.226-40.96,61.797-40.96,98.886v51.301h81.92
	v-51.301C242.347,68.624,227.613,33.054,201.387,6.828z"/>
<path style="fill:#602F75;" d="M242.347,163.841h-81.92c-3.77,0-6.827-3.053-6.827-6.827v-51.301
	c0-39.18,15.256-76.013,42.96-103.714c2.666-2.666,6.987-2.666,9.653,0c27.704,27.701,42.96,64.534,42.96,103.714v51.301
	C249.174,160.788,246.117,163.841,242.347,163.841z M167.254,150.188h68.267v-44.474c0-33.186-12.07-64.514-34.133-88.98
	c-22.064,24.467-34.133,55.793-34.133,88.98V150.188z"/>
<path style="fill:#EA3457;" d="M174.08,334.508c-3.77,0-6.827-3.053-6.827-6.827v-143.36c0-3.773,3.057-6.827,6.827-6.827
	s6.827,3.053,6.827,6.827v143.36C180.907,331.454,177.85,334.508,174.08,334.508z"/>
<g>
</g>
<g>
</g>
<g>
</g>
<g>
</g>
<g>
</g>
<g>
</g>
<g>
</g>
<g>
</g>
<g>
</g>
<g>
</g>
<g>
</g>
<g>
</g>
<g>
</g>
<g>
</g>
<g>
</g>
</svg>
