<svg xmlns="http://www.w3.org/2000/svg" viewBox="0 0 512 512"><path d="M460.8 293.717c0-37.291-14.933-82.688-40.277-123.477 13.739-35.584 1.792-81.92-9.301-112.213a11.956 11.956 0 00-21.59 0 105.305 105.305 0 01-27.221 44.288 191.084 191.084 0 00-65.024-36.267L269.91 17.493a15.277 15.277 0 00-27.818 0l-27.477 48.555a191.067 191.067 0 00-65.024 36.267 105.305 105.305 0 01-27.221-44.288 11.956 11.956 0 00-21.59 0C89.687 88.32 77.74 134.656 91.479 170.24 66.133 211.029 51.2 256.426 51.2 293.717a149.556 149.556 0 0047.104 106.581 236.887 236.887 0 00-12.971 77.483c0 6.656 6.485 12.8 17.067 17.408.171.085.427.171.597.256a92.885 92.885 0 0014.677 4.693 146.026 146.026 0 0018.688 2.816c1.451.085 3.072.171 4.608.256 1.365.085 2.731.171 4.096.171 1.28.085 2.645.085 4.011.085h.256c4.352 0 8.704-.171 12.8-.512a139.676 139.676 0 0016.981-2.475c2.304-.427 4.608-1.024 6.741-1.621a56.12 56.12 0 0021.504-10.325 14.425 14.425 0 005.973-10.752 6.426 6.426 0 00-.085-.939c-.256-2.389-.853-9.301-1.365-19.712l.085-.256a253.845 253.845 0 0035.499 3.755c2.816.085 5.632.171 8.533.171s5.717-.085 8.533-.171a253.861 253.861 0 0035.499-3.755l.085.256c-.512 10.411-1.109 17.323-1.365 19.712-.052.31-.08.624-.085.939a14.428 14.428 0 005.973 10.752 26.004 26.004 0 002.901 2.219 64.114 64.114 0 0018.603 8.107c2.133.597 4.437 1.195 6.741 1.621a139.9 139.9 0 0016.981 2.475c2.304.171 4.693.341 7.083.427 1.451 0 2.901.085 4.352.085h1.621c1.365 0 2.731 0 4.011-.085 1.365 0 2.731-.085 4.096-.171 1.536-.085 3.157-.171 4.608-.256a146.026 146.026 0 0018.688-2.816 92.988 92.988 0 0014.677-4.693c.171-.085.427-.171.597-.256a49.824 49.824 0 008.533-4.693 16.357 16.357 0 008.533-12.715 237.248 237.248 0 00-12.971-77.483A149.551 149.551 0 00460.8 293.717z" fill="#283593"/><path d="M420.523 170.24c13.739-35.584 1.792-81.92-9.301-112.213a11.956 11.956 0 00-21.59 0 147.774 147.774 0 01-5.717 14.08 90.33 90.33 0 01-21.504 30.208c-2.56-2.048-5.035-4.096-7.68-6.144a186.896 186.896 0 00-57.344-30.123 138.774 138.774 0 00-82.773 0 187.357 187.357 0 00-59.051 31.488c-2.048 1.536-4.011 3.157-5.973 4.779a6.478 6.478 0 01-.768-.768 106.136 106.136 0 01-26.453-43.52 11.956 11.956 0 00-21.59 0 284.655 284.655 0 00-5.035 15.104c-9.131 29.269-15.872 66.987-4.267 97.109C66.133 211.029 51.2 256.426 51.2 293.717a149.556 149.556 0 0047.104 106.581 215.699 215.699 0 00113.664 56.576 253.845 253.845 0 0035.499 3.755c2.816.085 5.632.171 8.533.171s5.717-.085 8.533-.171a253.861 253.861 0 0035.499-3.755 228.176 228.176 0 0072.277-25.685 198.217 198.217 0 0041.387-30.891A149.558 149.558 0 00460.8 293.717c0-37.291-14.933-82.688-40.277-123.477z" fill="#00695c"/><g fill="#009688"><path d="M435.2 310.784a149.556 149.556 0 01-47.104 106.581 188.448 188.448 0 01-15.787 13.824 228.151 228.151 0 01-72.277 25.685 253.845 253.845 0 01-35.499 3.755c-2.816.085-5.632.171-8.533.171s-5.717-.085-8.533-.171a253.861 253.861 0 01-35.499-3.755 215.699 215.699 0 01-113.664-56.576A149.556 149.556 0 0151.2 293.717c0-37.291 14.933-82.688 40.277-123.477-11.605-30.123-4.864-67.84 4.267-97.109a283.748 283.748 0 015.035-15.104 11.956 11.956 0 0121.59 0 106.136 106.136 0 0026.453 43.52c.234.277.491.534.768.768 1.963-1.621 3.925-3.243 5.973-4.779a172.094 172.094 0 0133.451-14.421 138.774 138.774 0 0182.773 0 191.067 191.067 0 0165.024 36.267 80.132 80.132 0 0017.92-23.211c2.645 2.048 5.12 4.096 7.68 6.144a90.33 90.33 0 0021.504-30.208c.717.903 1.293 1.91 1.707 2.987 11.093 30.293 23.04 76.629 9.301 112.213 25.344 40.789 40.277 86.186 40.277 123.477z"/><path d="M149.589 102.314a6.478 6.478 0 01-.768-.768c2.219-1.365 4.437-2.731 6.741-4.011-2.047 1.537-4.01 3.158-5.973 4.779z"/></g><g fill="#2c2f38"><path d="M281.6 153.6h-51.2a8.533 8.533 0 010-17.066h51.2a8.533 8.533 0 010 17.066zM307.2 119.466H204.8a8.533 8.533 0 010-17.066h102.4a8.533 8.533 0 010 17.066z"/></g><path d="M91.648 170.666c-.085-.171-.085-.256-.171-.427" fill="#556080"/><path d="M264.533 435.2v25.429c-2.816.085-5.632.171-8.533.171s-5.717-.085-8.533-.171V435.2a8.533 8.533 0 0117.066 0z" fill="#2c2f38"/><g fill="#bdc3c7"><path d="M124.587 476.16a17.362 17.362 0 00-5.291 17.237 8.44 8.44 0 01-1.621 6.741 92.988 92.988 0 01-14.677-4.693c-.171-.085-.427-.171-.597-.256a34.13 34.13 0 0112.032-32.768 8.542 8.542 0 1110.154 13.739zM168.277 483.84a29.097 29.097 0 00-6.144 19.115c-4.096.341-8.448.512-12.8.512h-.256c-1.365 0-2.73 0-4.011-.085a45.566 45.566 0 0111.008-31.573 8.569 8.569 0 0112.203 12.031zM409.6 495.189c-.171.085-.427.171-.597.256a92.885 92.885 0 01-14.677 4.693 8.437 8.437 0 01-1.621-6.741 17.448 17.448 0 00-5.291-17.237 8.634 8.634 0 01-1.621-11.947 8.524 8.524 0 0111.776-1.792 34.133 34.133 0 0112.031 32.768zM366.933 503.381c-1.28.085-2.645.085-4.011.085h-1.621c-1.451 0-2.901-.085-4.352-.085-2.389-.085-4.779-.256-7.083-.427a29.11 29.11 0 00-6.144-19.115 8.657 8.657 0 01.256-12.032 8.551 8.551 0 0111.947 0 45.565 45.565 0 0111.008 31.574z"/></g><path d="M213.333 204.8c0 16.052-11.184 29.934-26.868 33.351-15.684 3.417-31.629-4.556-38.306-19.153-6.677-14.597-2.281-31.874 10.56-41.505l54.614 27.307z" fill="#fff"/><g fill="#2c2f38"><path d="M179.2 238.933a8.451 8.451 0 116.059-2.475 8.979 8.979 0 01-6.059 2.475zM230.391 221.866a8.477 8.477 0 01-3.808-.9L141.25 178.3a8.532 8.532 0 01-.898-14.768 8.532 8.532 0 018.532-.498l85.333 42.667a8.535 8.535 0 014.49 9.598 8.536 8.536 0 01-8.316 6.567z"/></g><path d="M298.67 204.8c0 16.052 11.184 29.934 26.868 33.351 15.684 3.417 31.629-4.556 38.306-19.153s2.281-31.874-10.56-41.505L298.67 204.8z" fill="#fff"/><g fill="#2c2f38"><path d="M332.803 238.933a8.451 8.451 0 10-6.059-2.475 8.979 8.979 0 006.059 2.475zM281.611 221.866a8.477 8.477 0 003.808-.9l85.333-42.667c4.216-2.108 5.925-7.234 3.817-11.45s-7.234-5.925-11.45-3.817L277.786 205.7a8.535 8.535 0 00-4.49 9.598 8.535 8.535 0 008.315 6.568z"/></g><g fill="#cfd8dc"><path d="M178.432 290.901l-21.675 21.675a8.522 8.522 0 01-14.421-4.693l-5.803-34.816a234.466 234.466 0 0041.899 17.834zM230.4 298.154v.512l-22.443 26.709a9.91 9.91 0 01-16.725-1.877l-11.605-32.256a220.18 220.18 0 0050.773 6.912zM375.467 273.066l-5.803 34.816a8.52 8.52 0 01-14.421 4.693L333.568 290.9a234.32 234.32 0 0041.899-17.834zM281.6 298.154v.512l-18.261 30.464a8.554 8.554 0 01-14.678 0L230.4 298.666v-.512c7.68.341 16.128.512 25.6.512 9.472 0 17.92-.17 25.6-.512zM332.373 291.242l-11.605 32.256a9.91 9.91 0 01-16.725 1.877L281.6 298.666v-.512a220.187 220.187 0 0050.773-6.912z"/></g><path d="M426.225 278.9a31.074 31.074 0 00-17.042-17.817 44.836 44.836 0 00-37.533 4.35c-33.917 16.958-49.4 24.7-115.65 24.7s-81.733-7.742-115.65-24.7a44.837 44.837 0 00-37.533-4.35A31.077 31.077 0 0085.775 278.9a8.53 8.53 0 1016.184 5.4 14.422 14.422 0 017.392-7.446 29.65 29.65 0 0123.367 3.846c34.175 17.088 53 26.5 123.283 26.5s89.108-9.412 123.283-26.5a29.976 29.976 0 0123.175-3.925 14.167 14.167 0 017.617 7.625 8.53 8.53 0 0016.149-5.5z" fill="#2c2f38"/><path d="M88.738 402.529A245.671 245.671 0 0076.8 477.737c0 5.979 2.975 17.246 22.833 25.508a119.534 119.534 0 0036.242 8.229l4.542.25c2.833.183 5.75.275 8.917.275 1.259 0 2.492-.158 3.751-.188.18.011.333.104.516.104.288-.042.573-.099.855-.172 8.81-.2 17.586-1.167 26.229-2.89 2.55-.475 5.117-1.137 7.475-1.8a63.292 63.292 0 0024.717-12 22.45 22.45 0 008.991-17.316 9.848 9.848 0 00-.133-1.766c-.155-1.472-.43-4.681-.728-9.041a256.033 256.033 0 0069.992 0c-.291 4.296-.553 7.389-.672 8.582a13.168 13.168 0 00-.192 2.225 22.215 22.215 0 008.775 17.129 33.966 33.966 0 003.767 2.917 72.14 72.14 0 0021.158 9.271c2.367.663 4.933 1.325 7.275 1.758a152.684 152.684 0 0025.842 3.1l5.975.087c2.908 0 5.825-.092 8.892-.288l4.55-.258a118.86 118.86 0 0035.917-8.175 56.12 56.12 0 0010.7-5.746 24.006 24.006 0 0012.217-19.796 245.673 245.673 0 00-11.938-75.209 156.566 156.566 0 0046.071-108.812c0-37.756-14.422-82.884-39.502-124.442 12.192-36.799 1.17-82.099-10.606-114.229a20.435 20.435 0 00-37.633.17 107.618 107.618 0 01-19.828 35.708 196.535 196.535 0 00-58.559-31.913L277.32 13.256a23.77 23.77 0 00-42.653.031l-25.872 45.724a196.535 196.535 0 00-58.559 31.913 107.636 107.636 0 01-19.828-35.708 19.417 19.417 0 00-18.708-12.55 19.826 19.826 0 00-18.925 12.383c-11.776 32.126-22.798 77.425-10.606 114.224-25.08 41.558-39.502 86.686-39.502 124.442a156.567 156.567 0 0046.071 108.814zM204.8 477.737a7.313 7.313 0 01-3.075 4.4 48.59 48.59 0 01-18.175 8.483c-1.9.538-3.95 1.075-6.208 1.5a127.76 127.76 0 01-14.086 2.116 25.455 25.455 0 014.995-10.42 8.533 8.533 0 00-12.15-11.983 42.963 42.963 0 00-10.334 23.045 136.36 136.36 0 01-4.658-.208l-4.008-.217a124.772 124.772 0 01-17.964-2.849 17.195 17.195 0 015.447-15.439 8.533 8.533 0 001.755-11.9 8.533 8.533 0 00-11.888-1.833 34.445 34.445 0 00-12.273 23.141c-5.975-3.18-8.31-6.295-8.31-7.837.052-21.017 3-41.927 8.761-62.139a227.168 227.168 0 00101.084 48.38c.416 6.899.841 11.761 1.087 13.76zm208.425 5.8a32.123 32.123 0 01-3.399 2.061 34.449 34.449 0 00-12.276-23.165 8.473 8.473 0 00-11.767 1.808 8.601 8.601 0 001.617 11.913 17.184 17.184 0 015.463 15.458 123.156 123.156 0 01-17.721 2.821l-4.658.258c-1.344.086-2.839.092-4.259.132a42.965 42.965 0 00-10.324-22.99 8.463 8.463 0 00-11.917-.046 8.594 8.594 0 00-.242 12.017 25.376 25.376 0 014.986 10.364 132.672 132.672 0 01-14.278-2.089c-2.05-.383-4.1-.921-5.967-1.446a55.807 55.807 0 01-16.192-6.946 18.611 18.611 0 01-2.133-1.65 6.942 6.942 0 01-2.925-4.242c.22-2.045.64-6.918 1.055-13.818a227.167 227.167 0 00101.084-48.379 228.68 228.68 0 018.761 62.139c0 1.163-1.275 3.288-4.908 5.8zM249.5 21.725a6.976 6.976 0 0112.984-.029l17.908 31.651a146.362 146.362 0 00-48.783 0L249.5 21.725zM108.791 60.929c.292-.779 1.642-1.196 2.784-1.196 1.1-.021 2.483.417 2.75 1.175a111.983 111.983 0 0028.653 46.774l.039.072c.062.076.155.105.22.179a56.103 56.103 0 0025.655 13.484 8.533 8.533 0 103.55-16.692 35.649 35.649 0 01-8.147-2.852 175.89 175.89 0 0152.822-27.665 130.82 130.82 0 0177.767 0 175.891 175.891 0 0152.822 27.665 35.649 35.649 0 01-8.147 2.852 8.534 8.534 0 103.55 16.692 56.121 56.121 0 0025.702-13.529c.05-.057.125-.075.173-.134l.039-.072a111.986 111.986 0 0028.653-46.773c.267-.754 1.6-1.167 2.725-1.175.825.1 2.508.413 2.808 1.192 11.233 30.671 21.95 74.063 9.192 106.629-.071.182-.04.369-.098.553-.05.19-.064.377-.101.57a8.422 8.422 0 002.302 8.179c23.986 39.298 37.763 81.76 37.763 116.861 0 85.114-83.455 154.75-187.733 158.375V435.2c0-4.713-3.82-8.533-8.533-8.533s-8.533 3.82-8.533 8.533v16.892c-104.28-3.626-187.735-73.262-187.735-158.376 0-35.101 13.777-77.562 37.763-116.861a8.422 8.422 0 002.302-8.179c-.036-.193-.051-.38-.101-.57-.058-.183-.027-.371-.098-.553-12.757-32.566-2.041-75.957 9.192-106.624z"/><path d="M85.775 278.9a8.53 8.53 0 1016.184 5.4 14.422 14.422 0 017.392-7.446 26.423 26.423 0 0119.531 2.206l5.027 30.173a16.978 16.978 0 0011.575 13.525c1.712.555 3.5.839 5.3.842a16.945 16.945 0 0012.008-4.992l12.95-12.949 7.484 20.795a17.208 17.208 0 0013.733 10.954 18.681 18.681 0 0017.533-6.546l14.75-17.546 12.125 20.212a17.062 17.062 0 0029.266 0l8.576-14.292 9.616 11.442a18.639 18.639 0 0014.633 6.971c1.021 0 2.041-.081 3.05-.242a17.222 17.222 0 0013.75-11.004l7.497-20.715 12.919 12.919a16.947 16.947 0 0012.008 4.992c1.8-.003 3.588-.287 5.3-.842a16.96 16.96 0 0011.567-13.471l4.313-25.885c1.775-.882 3.566-1.776 5.42-2.703a29.976 29.976 0 0123.175-3.925 14.167 14.167 0 017.617 7.625 8.53 8.53 0 0016.15-5.5 31.077 31.077 0 00-17.042-17.817 44.836 44.836 0 00-37.533 4.35c-33.917 16.958-49.401 24.7-115.651 24.7s-81.733-7.742-115.65-24.7a44.837 44.837 0 00-37.533-4.35 31.086 31.086 0 00-17.04 17.819zm64.975 27.579l-3.072-18.444c5.035 2.381 9.956 4.571 15.01 6.527l-11.938 11.917zm50.525 13.592a1.5 1.5 0 01-1.05.5l-.242.013c-.467-.004-.767-.117-.717.029l-6.371-17.706c6.174 1.099 12.941 1.999 20.549 2.679l-12.169 14.485zm44.141-12.963c3.418.051 6.891.092 10.583.092s7.166-.041 10.583-.092L256 324.746l-10.584-17.638zm58.925 13.263c-.337.18-.721.25-1.1.2a1.659 1.659 0 01-1.2-.683l-11.486-13.669c7.192-.468 13.631-1.116 19.571-1.909l-5.785 16.061zm48.4-13.83l-9.705-9.705c4.143-1.41 8.13-2.952 12.078-4.634l-2.373 14.339zM179.2 247.466c18.59-.066 34.989-12.185 40.51-29.937l6.873 3.437a8.534 8.534 0 007.633-15.267l-85.333-42.667a8.536 8.536 0 10-7.634 15.266l3.314 1.657a42.611 42.611 0 00-3.331 44.349 42.609 42.609 0 0037.968 23.162zm8.235-18.546a8.334 8.334 0 00-16.47 0 25.376 25.376 0 01-10.767-41.146l44.095 22.047a25.593 25.593 0 01-16.858 19.099zM273.967 217.15a8.538 8.538 0 0011.45 3.817l6.873-3.437a42.558 42.558 0 0077.338 8.819 42.557 42.557 0 00-2.192-46.392l3.314-1.657a8.533 8.533 0 003.798-11.441 8.534 8.534 0 00-11.432-3.826L277.784 205.7a8.533 8.533 0 00-3.817 11.45zM358.4 204.8a25.55 25.55 0 01-17.365 24.12 8.334 8.334 0 00-16.47 0 25.59 25.59 0 01-16.858-19.099l44.095-22.047A25.308 25.308 0 01358.4 204.8zM290.133 145.066a8.53 8.53 0 00-8.534-8.534h-51.2a8.533 8.533 0 000 17.066h51.2a8.53 8.53 0 008.534-8.532zM204.8 119.466h102.4a8.533 8.533 0 000-17.066H204.8a8.533 8.533 0 000 17.066z"/><path d="M230.4 256v8.533a8.533 8.533 0 0017.066 0V256a8.533 8.533 0 00-8.533-8.533A8.532 8.532 0 00230.4 256zM273.067 273.066a8.53 8.53 0 008.534-8.534V256a8.533 8.533 0 00-17.066 0v8.533a8.53 8.53 0 008.532 8.533z"/></svg>